<svg xmlns="http://www.w3.org/2000/svg" width="47.331" height="44.105" viewBox="0 0 47.331 44.105">
  <path id="check_circle" data-name="check circle" d="M21.523,0a20.712,20.712,0,0,0-8.367,1.714A21.209,21.209,0,0,0,1.714,13.156,20.712,20.712,0,0,0,0,21.523a20.712,20.712,0,0,0,1.714,8.367A21.209,21.209,0,0,0,13.156,41.333a20.712,20.712,0,0,0,8.367,1.714,20.712,20.712,0,0,0,8.367-1.714A21.209,21.209,0,0,0,41.333,29.891a20.712,20.712,0,0,0,1.714-8.367,20.712,20.712,0,0,0-1.714-8.367A21.209,21.209,0,0,0,29.891,1.714,20.712,20.712,0,0,0,21.523,0Zm0,38.712a16.606,16.606,0,0,1-6.7-1.361A16.859,16.859,0,0,1,5.7,28.228a16.606,16.606,0,0,1-1.361-6.7,16.606,16.606,0,0,1,1.361-6.7A16.859,16.859,0,0,1,14.819,5.7a16.606,16.606,0,0,1,6.7-1.361,16.606,16.606,0,0,1,6.7,1.361,16.859,16.859,0,0,1,9.124,9.124,16.606,16.606,0,0,1,1.361,6.7,16.606,16.606,0,0,1-1.361,6.7,16.859,16.859,0,0,1-9.124,9.124A16.606,16.606,0,0,1,21.523,38.712ZM17.239,24.951l-4.94-4.94L9.224,23.036,17.239,31,31.655,16.584l-3.024-3.024ZM47.331,44.105" fill="#0e0a15"/>
</svg>
